# WaveFront *.obj file (generated by Autodesk ATF)

mtllib body3_visual.mtl

g Body3

v -114.102878 130.273958 39.805295
v -114.102878 130.287654 39.543974
v -114.102878 130.328589 39.285516
v -114.102878 130.396317 39.032753
v -114.102878 130.490095 38.788454
v -114.102878 130.608895 38.555295
v -114.102878 130.751416 38.335832
v -114.102878 130.916096 38.132469
v -114.102878 131.101132 37.947433
v -114.102878 131.304495 37.782753
v -114.102878 131.523958 37.640232
v -114.102878 131.757117 37.521432
v -114.102878 132.001416 37.427654
v -114.102878 132.254179 37.359926
v -114.102878 132.512637 37.318991
v -114.102878 132.773958 37.305295
v -114.102878 133.035279 37.318991
v -114.102878 133.293737 37.359926
v -114.102878 133.546501 37.427654
v -114.102878 133.790800 37.521432
v -114.102878 134.023958 37.640232
v -114.102878 134.243421 37.782753
v -114.102878 134.446785 37.947433
v -114.102878 134.631820 38.132469
v -114.102878 134.796501 38.335832
v -114.102878 134.939022 38.555295
v -114.102878 135.057822 38.788454
v -114.102878 135.151600 39.032753
v -114.102878 135.219327 39.285516
v -114.102878 135.260263 39.543974
v -114.102878 135.273958 39.805295
v -114.102878 135.260263 40.066616
v -114.102878 135.219327 40.325075
v -114.102878 135.151600 40.577838
v -114.102878 135.057822 40.822137
v -114.102878 134.939022 41.055295
v -114.102878 134.796501 41.274758
v -114.102878 134.631820 41.478122
v -114.102878 134.446785 41.663157
v -114.102878 134.243421 41.827838
v -114.102878 134.023958 41.970359
v -114.102878 133.790800 42.089159
v -114.102878 133.546501 42.182937
v -114.102878 133.293737 42.250664
v -114.102878 133.035279 42.291600
v -114.102878 132.773958 42.305295
v -114.102878 132.512637 42.291600
v -114.102878 132.254179 42.250664
v -114.102878 132.001416 42.182937
v -114.102878 131.757117 42.089159
v -114.102878 131.523958 41.970359
v -114.102878 131.304495 41.827838
v -114.102878 131.101132 41.663157
v -114.102878 130.916096 41.478122
v -114.102878 130.751416 41.274758
v -114.102878 130.608895 41.055295
v -114.102878 130.490095 40.822137
v -114.102878 130.396317 40.577838
v -114.102878 130.328589 40.325075
v -114.102878 130.287654 40.066616
v -109.102878 130.273958 39.805295
v -109.102878 130.287654 40.066616
v -109.102878 130.328589 40.325075
v -109.102878 130.396317 40.577838
v -109.102878 130.490095 40.822137
v -109.102878 130.608895 41.055295
v -109.102878 130.751416 41.274758
v -109.102878 130.916096 41.478122
v -109.102878 131.101132 41.663157
v -109.102878 131.304495 41.827838
v -109.102878 131.523958 41.970359
v -109.102878 131.757117 42.089159
v -109.102878 132.001416 42.182937
v -109.102878 132.254179 42.250664
v -109.102878 132.512637 42.291600
v -109.102878 132.773958 42.305295
v -109.102878 133.035279 42.291600
v -109.102878 133.293737 42.250664
v -109.102878 133.546501 42.182937
v -109.102878 133.790800 42.089159
v -109.102878 134.023958 41.970359
v -109.102878 134.243421 41.827838
v -109.102878 134.446785 41.663157
v -109.102878 134.631820 41.478122
v -109.102878 134.796501 41.274758
v -109.102878 134.939022 41.055295
v -109.102878 135.057822 40.822137
v -109.102878 135.151600 40.577838
v -109.102878 135.219327 40.325075
v -109.102878 135.260263 40.066616
v -109.102878 135.273958 39.805295
v -109.102878 135.260263 39.543974
v -109.102878 135.219327 39.285516
v -109.102878 135.151600 39.032753
v -109.102878 135.057822 38.788454
v -109.102878 134.939022 38.555295
v -109.102878 134.796501 38.335832
v -109.102878 134.631820 38.132469
v -109.102878 134.446785 37.947433
v -109.102878 134.243421 37.782753
v -109.102878 134.023958 37.640232
v -109.102878 133.790800 37.521432
v -109.102878 133.546501 37.427654
v -109.102878 133.293737 37.359926
v -109.102878 133.035279 37.318991
v -109.102878 132.773958 37.305295
v -109.102878 132.512637 37.318991
v -109.102878 132.254179 37.359926
v -109.102878 132.001416 37.427654
v -109.102878 131.757117 37.521432
v -109.102878 131.523958 37.640232
v -109.102878 131.304495 37.782753
v -109.102878 131.101132 37.947433
v -109.102878 130.916096 38.132469
v -109.102878 130.751416 38.335832
v -109.102878 130.608895 38.555295
v -109.102878 130.490095 38.788454
v -109.102878 130.396317 39.032753
v -109.102878 130.328589 39.285516
v -109.102878 130.287654 39.543974
vt 2.500000 0.261799 0.000000
vt -2.500000 0.261799 0.000000
vt 2.500000 0.000000 0.000000
vt -2.500000 0.000000 0.000000
vt 2.500000 -0.261799 0.000000
vt -2.500000 -0.261799 0.000000
vt 2.500000 -0.523599 0.000000
vt -2.500000 -0.523599 0.000000
vt 2.500000 -0.785398 0.000000
vt -2.500000 -0.785398 0.000000
vt 2.500000 -1.047198 0.000000
vt -2.500000 -1.047198 0.000000
vt 2.500000 -1.308997 0.000000
vt -2.500000 -1.308997 0.000000
vt 2.500000 -1.570796 0.000000
vt -2.500000 -1.570796 0.000000
vt 2.500000 -1.832596 0.000000
vt -2.500000 -1.832596 0.000000
vt 2.500000 -2.094395 0.000000
vt -2.500000 -2.094395 0.000000
vt 2.500000 -2.356194 0.000000
vt -2.500000 -2.356194 0.000000
vt 2.500000 -2.617994 0.000000
vt -2.500000 -2.617994 0.000000
vt 2.500000 -2.879793 0.000000
vt -2.500000 -2.879793 0.000000
vt 2.500000 -3.141593 0.000000
vt -2.500000 -3.141593 0.000000
vt 2.500000 -3.403392 0.000000
vt -2.500000 -3.403392 0.000000
vt 2.500000 -3.665191 0.000000
vt -2.500000 -3.665191 0.000000
vt 2.500000 -3.926991 0.000000
vt -2.500000 -3.926991 0.000000
vt 2.500000 -4.188790 0.000000
vt -2.500000 -4.188790 0.000000
vt 2.500000 -4.450590 0.000000
vt -2.500000 -4.450590 0.000000
vt 2.500000 -4.712389 0.000000
vt -2.500000 -4.712389 0.000000
vt 2.500000 -4.974188 0.000000
vt -2.500000 -4.974188 0.000000
vt 2.500000 -5.235988 0.000000
vt -2.500000 -5.235988 0.000000
vt 2.500000 -5.497787 0.000000
vt -2.500000 -5.497787 0.000000
vt 2.500000 -5.759587 0.000000
vt -2.500000 -5.759587 0.000000
vt 2.500000 -6.021386 0.000000
vt -2.500000 -6.021386 0.000000
vt 2.500000 -6.283185 0.000000
vt -2.500000 -6.283185 0.000000
vt 2.500000 -6.544985 0.000000
vt -2.500000 -6.544985 0.000000
vt 2.500000 -6.806784 0.000000
vt -2.500000 -6.806784 0.000000
vt 2.500000 -7.068583 0.000000
vt -2.500000 -7.068583 0.000000
vt 2.500000 -7.330383 0.000000
vt -2.500000 -7.330383 0.000000
vt 2.500000 -7.592182 0.000000
vt -2.500000 -7.592182 0.000000
vt 2.500000 -7.853982 0.000000
vt -2.500000 -7.853982 0.000000
vt 2.500000 7.853982 0.000000
vt -2.500000 7.853982 0.000000
vt 2.500000 7.592182 0.000000
vt -2.500000 7.592182 0.000000
vt 2.500000 7.330383 0.000000
vt -2.500000 7.330383 0.000000
vt 2.500000 7.068583 0.000000
vt -2.500000 7.068583 0.000000
vt 2.500000 6.806784 0.000000
vt -2.500000 6.806784 0.000000
vt 2.500000 6.544985 0.000000
vt -2.500000 6.544985 0.000000
vt 2.500000 6.283185 0.000000
vt -2.500000 6.283185 0.000000
vt 2.500000 6.021386 0.000000
vt -2.500000 6.021386 0.000000
vt 2.500000 5.759587 0.000000
vt -2.500000 5.759587 0.000000
vt 2.500000 5.497787 0.000000
vt -2.500000 5.497787 0.000000
vt 2.500000 5.235988 0.000000
vt -2.500000 5.235988 0.000000
vt 2.500000 4.974188 0.000000
vt -2.500000 4.974188 0.000000
vt 2.500000 4.712389 0.000000
vt -2.500000 4.712389 0.000000
vt 2.500000 4.450590 0.000000
vt -2.500000 4.450590 0.000000
vt 2.500000 4.188790 0.000000
vt -2.500000 4.188790 0.000000
vt 2.500000 3.926991 0.000000
vt -2.500000 3.926991 0.000000
vt 2.500000 3.665191 0.000000
vt -2.500000 3.665191 0.000000
vt 2.500000 3.403392 0.000000
vt -2.500000 3.403392 0.000000
vt 2.500000 3.141593 0.000000
vt -2.500000 3.141593 0.000000
vt 2.500000 2.879793 0.000000
vt -2.500000 2.879793 0.000000
vt 2.500000 2.617994 0.000000
vt -2.500000 2.617994 0.000000
vt 2.500000 2.356194 0.000000
vt -2.500000 2.356194 0.000000
vt 2.500000 2.094395 0.000000
vt -2.500000 2.094395 0.000000
vt 2.500000 1.832596 0.000000
vt -2.500000 1.832596 0.000000
vt 2.500000 1.570796 0.000000
vt -2.500000 1.570796 0.000000
vt 2.500000 1.308997 0.000000
vt -2.500000 1.308997 0.000000
vt 2.500000 1.047198 0.000000
vt -2.500000 1.047198 0.000000
vt 2.500000 0.785398 0.000000
vt -2.500000 0.785398 0.000000
vt 2.500000 0.523599 0.000000
vt -2.500000 0.523599 0.000000
vt -2.486305 -0.261321 0.000000
vt 2.486305 -0.261321 0.000000
vt -2.500000 0.000000 0.000000
vt 2.500000 -0.000000 0.000000
vt -2.486305 0.261321 0.000000
vt 2.486305 0.261321 0.000000
vt -2.445369 0.519779 0.000000
vt 2.445369 0.519779 0.000000
vt -2.377641 0.772542 0.000000
vt 2.377641 0.772542 0.000000
vt -2.283864 1.016842 0.000000
vt 2.283864 1.016842 0.000000
vt -2.165064 1.250000 0.000000
vt 2.165064 1.250000 0.000000
vt -2.022542 1.469463 0.000000
vt 2.022542 1.469463 0.000000
vt -1.857862 1.672827 0.000000
vt 1.857862 1.672827 0.000000
vt -1.672827 1.857862 0.000000
vt 1.672827 1.857862 0.000000
vt -1.469463 2.022542 0.000000
vt 1.469463 2.022542 0.000000
vt -1.250000 2.165064 0.000000
vt 1.250000 2.165064 0.000000
vt -1.016842 2.283864 0.000000
vt 1.016842 2.283864 0.000000
vt -0.772542 2.377641 0.000000
vt 0.772542 2.377641 0.000000
vt -0.519779 2.445369 0.000000
vt 0.519779 2.445369 0.000000
vt -0.261321 2.486305 0.000000
vt 0.261321 2.486305 0.000000
vt 0.000000 2.500000 0.000000
vt 2.445369 -0.519779 0.000000
vt -2.445369 -0.519779 0.000000
vt 2.377641 -0.772542 0.000000
vt -2.377641 -0.772542 0.000000
vt 2.283864 -1.016842 0.000000
vt -2.283864 -1.016842 0.000000
vt 2.165064 -1.250000 0.000000
vt -2.165064 -1.250000 0.000000
vt 2.022542 -1.469463 0.000000
vt -2.022542 -1.469463 0.000000
vt 1.857862 -1.672827 0.000000
vt -1.857862 -1.672827 0.000000
vt 1.672827 -1.857862 0.000000
vt -1.672827 -1.857862 0.000000
vt 1.469463 -2.022542 0.000000
vt -1.469463 -2.022542 0.000000
vt 1.250000 -2.165064 0.000000
vt -1.250000 -2.165064 0.000000
vt 1.016842 -2.283864 0.000000
vt -1.016842 -2.283864 0.000000
vt 0.772542 -2.377641 0.000000
vt -0.772542 -2.377641 0.000000
vt 0.519779 -2.445369 0.000000
vt -0.519779 -2.445369 0.000000
vt 0.261321 -2.486305 0.000000
vt -0.261321 -2.486305 0.000000
vt -0.000000 -2.500000 0.000000
vt 2.486305 0.261321 0.000000
vt -2.486305 0.261321 0.000000
vt 2.500000 0.000000 0.000000
vt -2.500000 -0.000000 0.000000
vt 2.486305 -0.261321 0.000000
vt -2.486305 -0.261321 0.000000
vt 2.445369 -0.519779 0.000000
vt -2.445369 -0.519779 0.000000
vt 2.377641 -0.772542 0.000000
vt -2.377641 -0.772542 0.000000
vt 2.283864 -1.016842 0.000000
vt -2.283864 -1.016842 0.000000
vt 2.165064 -1.250000 0.000000
vt -2.165064 -1.250000 0.000000
vt 2.022542 -1.469463 0.000000
vt -2.022542 -1.469463 0.000000
vt 1.857862 -1.672827 0.000000
vt -1.857862 -1.672827 0.000000
vt 1.672827 -1.857862 0.000000
vt -1.672827 -1.857862 0.000000
vt 1.469463 -2.022542 0.000000
vt -1.469463 -2.022542 0.000000
vt 1.250000 -2.165064 0.000000
vt -1.250000 -2.165064 0.000000
vt 1.016842 -2.283864 0.000000
vt -1.016842 -2.283864 0.000000
vt 0.772542 -2.377641 0.000000
vt -0.772542 -2.377641 0.000000
vt 0.519779 -2.445369 0.000000
vt -0.519779 -2.445369 0.000000
vt 0.261321 -2.486305 0.000000
vt -0.261321 -2.486305 0.000000
vt 0.000000 -2.500000 0.000000
vt -2.445369 0.519779 0.000000
vt 2.445369 0.519779 0.000000
vt -2.377641 0.772542 0.000000
vt 2.377641 0.772542 0.000000
vt -2.283864 1.016842 0.000000
vt 2.283864 1.016842 0.000000
vt -2.165064 1.250000 0.000000
vt 2.165064 1.250000 0.000000
vt -2.022542 1.469463 0.000000
vt 2.022542 1.469463 0.000000
vt -1.857862 1.672827 0.000000
vt 1.857862 1.672827 0.000000
vt -1.672827 1.857862 0.000000
vt 1.672827 1.857862 0.000000
vt -1.469463 2.022542 0.000000
vt 1.469463 2.022542 0.000000
vt -1.250000 2.165064 0.000000
vt 1.250000 2.165064 0.000000
vt -1.016842 2.283864 0.000000
vt 1.016842 2.283864 0.000000
vt -0.772542 2.377641 0.000000
vt 0.772542 2.377641 0.000000
vt -0.519779 2.445369 0.000000
vt 0.519779 2.445369 0.000000
vt -0.261321 2.486305 0.000000
vt 0.261321 2.486305 0.000000
vt -0.000000 2.500000 0.000000
vn -0.000000 -0.994522 -0.104528
vn -0.000000 -0.994522 -0.104528
vn -0.000000 -1.000000 -0.000000
vn -0.000000 -1.000000 -0.000000
vn -0.000000 -0.994522 0.104528
vn -0.000000 -0.994522 0.104528
vn -0.000000 -0.978148 0.207912
vn -0.000000 -0.978148 0.207912
vn -0.000000 -0.951057 0.309017
vn -0.000000 -0.951057 0.309017
vn -0.000000 -0.913545 0.406737
vn -0.000000 -0.913545 0.406737
vn -0.000000 -0.866025 0.500000
vn -0.000000 -0.866025 0.500000
vn -0.000000 -0.809017 0.587785
vn -0.000000 -0.809017 0.587785
vn -0.000000 -0.743145 0.669131
vn -0.000000 -0.743145 0.669131
vn -0.000000 -0.669131 0.743145
vn -0.000000 -0.669131 0.743145
vn -0.000000 -0.587785 0.809017
vn -0.000000 -0.587785 0.809017
vn -0.000000 -0.500000 0.866025
vn -0.000000 -0.500000 0.866025
vn -0.000000 -0.406737 0.913545
vn -0.000000 -0.406737 0.913545
vn -0.000000 -0.309017 0.951057
vn -0.000000 -0.309017 0.951057
vn -0.000000 -0.207912 0.978148
vn -0.000000 -0.207912 0.978148
vn -0.000000 -0.104528 0.994522
vn -0.000000 -0.104528 0.994522
vn -0.000000 -0.000000 1.000000
vn 0.000000 0.000000 1.000000
vn 0.000000 0.104528 0.994522
vn 0.000000 0.104528 0.994522
vn 0.000000 0.207912 0.978148
vn 0.000000 0.207912 0.978148
vn 0.000000 0.309017 0.951057
vn 0.000000 0.309017 0.951057
vn 0.000000 0.406737 0.913545
vn 0.000000 0.406737 0.913545
vn 0.000000 0.500000 0.866025
vn 0.000000 0.500000 0.866025
vn 0.000000 0.587785 0.809017
vn 0.000000 0.587785 0.809017
vn 0.000000 0.669131 0.743145
vn 0.000000 0.669131 0.743145
vn 0.000000 0.743145 0.669131
vn 0.000000 0.743145 0.669131
vn 0.000000 0.809017 0.587785
vn 0.000000 0.809017 0.587785
vn 0.000000 0.866025 0.500000
vn 0.000000 0.866025 0.500000
vn 0.000000 0.913545 0.406737
vn 0.000000 0.913545 0.406737
vn 0.000000 0.951057 0.309017
vn 0.000000 0.951057 0.309017
vn 0.000000 0.978148 0.207912
vn 0.000000 0.978148 0.207912
vn 0.000000 0.994522 0.104528
vn 0.000000 0.994522 0.104528
vn 0.000000 1.000000 -0.000000
vn 0.000000 1.000000 -0.000000
vn 0.000000 0.994522 -0.104528
vn 0.000000 0.994522 -0.104528
vn 0.000000 0.978148 -0.207912
vn 0.000000 0.978148 -0.207912
vn 0.000000 0.951057 -0.309017
vn 0.000000 0.951057 -0.309017
vn 0.000000 0.913545 -0.406737
vn 0.000000 0.913545 -0.406737
vn 0.000000 0.866025 -0.500000
vn 0.000000 0.866025 -0.500000
vn 0.000000 0.809017 -0.587785
vn 0.000000 0.809017 -0.587785
vn 0.000000 0.743145 -0.669131
vn 0.000000 0.743145 -0.669131
vn 0.000000 0.669131 -0.743145
vn 0.000000 0.669131 -0.743145
vn 0.000000 0.587785 -0.809017
vn 0.000000 0.587785 -0.809017
vn 0.000000 0.500000 -0.866025
vn 0.000000 0.500000 -0.866025
vn 0.000000 0.406737 -0.913545
vn 0.000000 0.406737 -0.913545
vn 0.000000 0.309017 -0.951057
vn 0.000000 0.309017 -0.951057
vn 0.000000 0.207912 -0.978148
vn 0.000000 0.207912 -0.978148
vn 0.000000 0.104528 -0.994522
vn 0.000000 0.104528 -0.994522
vn -0.000000 -0.000000 -1.000000
vn 0.000000 0.000000 -1.000000
vn -0.000000 -0.104528 -0.994522
vn -0.000000 -0.104528 -0.994522
vn -0.000000 -0.207912 -0.978148
vn -0.000000 -0.207912 -0.978148
vn -0.000000 -0.309017 -0.951057
vn -0.000000 -0.309017 -0.951057
vn -0.000000 -0.406737 -0.913545
vn -0.000000 -0.406737 -0.913545
vn -0.000000 -0.500000 -0.866025
vn -0.000000 -0.500000 -0.866025
vn -0.000000 -0.587785 -0.809017
vn -0.000000 -0.587785 -0.809017
vn -0.000000 -0.669131 -0.743145
vn -0.000000 -0.669131 -0.743145
vn -0.000000 -0.743145 -0.669131
vn -0.000000 -0.743145 -0.669131
vn -0.000000 -0.809017 -0.587785
vn -0.000000 -0.809017 -0.587785
vn -0.000000 -0.866025 -0.500000
vn -0.000000 -0.866025 -0.500000
vn -0.000000 -0.913545 -0.406737
vn -0.000000 -0.913545 -0.406737
vn -0.000000 -0.951057 -0.309017
vn -0.000000 -0.951057 -0.309017
vn -0.000000 -0.978148 -0.207912
vn -0.000000 -0.978148 -0.207912
vn -1.000000 0.000000 -0.000000
vn -1.000000 0.000000 -0.000000
vn -1.000000 0.000000 -0.000000
vn -1.000000 0.000000 -0.000000
vn -1.000000 0.000000 -0.000000
vn -1.000000 0.000000 -0.000000
vn -1.000000 0.000000 -0.000000
vn -1.000000 0.000000 -0.000000
vn -1.000000 0.000000 -0.000000
vn -1.000000 0.000000 -0.000000
vn -1.000000 0.000000 -0.000000
vn -1.000000 0.000000 -0.000000
vn -1.000000 0.000000 -0.000000
vn -1.000000 0.000000 -0.000000
vn -1.000000 0.000000 -0.000000
vn -1.000000 0.000000 -0.000000
vn -1.000000 0.000000 -0.000000
vn -1.000000 0.000000 -0.000000
vn -1.000000 0.000000 -0.000000
vn -1.000000 0.000000 -0.000000
vn -1.000000 0.000000 -0.000000
vn -1.000000 0.000000 -0.000000
vn -1.000000 0.000000 -0.000000
vn -1.000000 0.000000 -0.000000
vn -1.000000 0.000000 -0.000000
vn -1.000000 0.000000 -0.000000
vn -1.000000 0.000000 -0.000000
vn -1.000000 0.000000 -0.000000
vn -1.000000 0.000000 -0.000000
vn -1.000000 0.000000 -0.000000
vn -1.000000 0.000000 -0.000000
vn -1.000000 0.000000 -0.000000
vn -1.000000 0.000000 -0.000000
vn -1.000000 0.000000 -0.000000
vn -1.000000 0.000000 -0.000000
vn -1.000000 0.000000 -0.000000
vn -1.000000 0.000000 -0.000000
vn -1.000000 0.000000 -0.000000
vn -1.000000 0.000000 -0.000000
vn -1.000000 0.000000 -0.000000
vn -1.000000 0.000000 -0.000000
vn -1.000000 0.000000 -0.000000
vn -1.000000 0.000000 -0.000000
vn -1.000000 0.000000 -0.000000
vn -1.000000 0.000000 -0.000000
vn -1.000000 0.000000 -0.000000
vn -1.000000 0.000000 -0.000000
vn -1.000000 0.000000 -0.000000
vn -1.000000 0.000000 -0.000000
vn -1.000000 0.000000 -0.000000
vn -1.000000 0.000000 -0.000000
vn -1.000000 0.000000 -0.000000
vn -1.000000 0.000000 -0.000000
vn -1.000000 0.000000 -0.000000
vn -1.000000 0.000000 -0.000000
vn -1.000000 0.000000 -0.000000
vn -1.000000 0.000000 -0.000000
vn -1.000000 0.000000 -0.000000
vn -1.000000 0.000000 -0.000000
vn -1.000000 0.000000 -0.000000
vn 1.000000 -0.000000 0.000000
vn 1.000000 -0.000000 0.000000
vn 1.000000 -0.000000 0.000000
vn 1.000000 -0.000000 0.000000
vn 1.000000 -0.000000 0.000000
vn 1.000000 -0.000000 0.000000
vn 1.000000 -0.000000 0.000000
vn 1.000000 -0.000000 0.000000
vn 1.000000 -0.000000 0.000000
vn 1.000000 -0.000000 0.000000
vn 1.000000 -0.000000 0.000000
vn 1.000000 -0.000000 0.000000
vn 1.000000 -0.000000 0.000000
vn 1.000000 -0.000000 0.000000
vn 1.000000 -0.000000 0.000000
vn 1.000000 -0.000000 0.000000
vn 1.000000 -0.000000 0.000000
vn 1.000000 -0.000000 0.000000
vn 1.000000 -0.000000 0.000000
vn 1.000000 -0.000000 0.000000
vn 1.000000 -0.000000 0.000000
vn 1.000000 -0.000000 0.000000
vn 1.000000 -0.000000 0.000000
vn 1.000000 -0.000000 0.000000
vn 1.000000 -0.000000 0.000000
vn 1.000000 -0.000000 0.000000
vn 1.000000 -0.000000 0.000000
vn 1.000000 -0.000000 0.000000
vn 1.000000 -0.000000 0.000000
vn 1.000000 -0.000000 0.000000
vn 1.000000 -0.000000 0.000000
vn 1.000000 -0.000000 0.000000
vn 1.000000 -0.000000 0.000000
vn 1.000000 -0.000000 0.000000
vn 1.000000 -0.000000 0.000000
vn 1.000000 -0.000000 0.000000
vn 1.000000 -0.000000 0.000000
vn 1.000000 -0.000000 0.000000
vn 1.000000 -0.000000 0.000000
vn 1.000000 -0.000000 0.000000
vn 1.000000 -0.000000 0.000000
vn 1.000000 -0.000000 0.000000
vn 1.000000 -0.000000 0.000000
vn 1.000000 -0.000000 0.000000
vn 1.000000 -0.000000 0.000000
vn 1.000000 -0.000000 0.000000
vn 1.000000 -0.000000 0.000000
vn 1.000000 -0.000000 0.000000
vn 1.000000 -0.000000 0.000000
vn 1.000000 -0.000000 0.000000
vn 1.000000 -0.000000 0.000000
vn 1.000000 -0.000000 0.000000
vn 1.000000 -0.000000 0.000000
vn 1.000000 -0.000000 0.000000
vn 1.000000 -0.000000 0.000000
vn 1.000000 -0.000000 0.000000
vn 1.000000 -0.000000 0.000000
vn 1.000000 -0.000000 0.000000
vn 1.000000 -0.000000 0.000000
vn 1.000000 -0.000000 0.000000
usemtl ABS_(White)
f 2/1/1 120/2/2 1/3/3
f 1/3/3 120/2/2 61/4/4
f 1/3/3 61/4/4 60/5/5
f 60/5/5 61/4/4 62/6/6
f 60/5/5 62/6/6 59/7/7
f 59/7/7 62/6/6 63/8/8
f 59/7/7 63/8/8 58/9/9
f 58/9/9 63/8/8 64/10/10
f 58/9/9 64/10/10 57/11/11
f 57/11/11 64/10/10 65/12/12
f 57/11/11 65/12/12 56/13/13
f 56/13/13 65/12/12 66/14/14
f 56/13/13 66/14/14 55/15/15
f 55/15/15 66/14/14 67/16/16
f 55/15/15 67/16/16 54/17/17
f 54/17/17 67/16/16 68/18/18
f 54/17/17 68/18/18 53/19/19
f 53/19/19 68/18/18 69/20/20
f 53/19/19 69/20/20 52/21/21
f 52/21/21 69/20/20 70/22/22
f 52/21/21 70/22/22 51/23/23
f 51/23/23 70/22/22 71/24/24
f 51/23/23 71/24/24 50/25/25
f 50/25/25 71/24/24 72/26/26
f 50/25/25 72/26/26 49/27/27
f 49/27/27 72/26/26 73/28/28
f 49/27/27 73/28/28 48/29/29
f 48/29/29 73/28/28 74/30/30
f 48/29/29 74/30/30 47/31/31
f 47/31/31 74/30/30 75/32/32
f 47/31/31 75/32/32 46/33/33
f 46/33/33 75/32/32 76/34/34
f 46/33/33 76/34/34 45/35/35
f 45/35/35 76/34/34 77/36/36
f 45/35/35 77/36/36 44/37/37
f 44/37/37 77/36/36 78/38/38
f 44/37/37 78/38/38 43/39/39
f 43/39/39 78/38/38 79/40/40
f 43/39/39 79/40/40 42/41/41
f 42/41/41 79/40/40 80/42/42
f 42/41/41 80/42/42 41/43/43
f 41/43/43 80/42/42 81/44/44
f 41/43/43 81/44/44 40/45/45
f 40/45/45 81/44/44 82/46/46
f 40/45/45 82/46/46 39/47/47
f 39/47/47 82/46/46 83/48/48
f 39/47/47 83/48/48 38/49/49
f 38/49/49 83/48/48 84/50/50
f 38/49/49 84/50/50 37/51/51
f 37/51/51 84/50/50 85/52/52
f 37/51/51 85/52/52 36/53/53
f 36/53/53 85/52/52 86/54/54
f 36/53/53 86/54/54 35/55/55
f 35/55/55 86/54/54 87/56/56
f 35/55/55 87/56/56 34/57/57
f 34/57/57 87/56/56 88/58/58
f 34/57/57 88/58/58 33/59/59
f 33/59/59 88/58/58 89/60/60
f 33/59/59 89/60/60 32/61/61
f 32/61/61 89/60/60 90/62/62
f 32/61/61 90/62/62 31/63/63
f 31/63/63 90/62/62 91/64/64
f 31/65/63 91/66/64 30/67/65
f 30/67/65 91/66/64 92/68/66
f 30/67/65 92/68/66 29/69/67
f 29/69/67 92/68/66 93/70/68
f 29/69/67 93/70/68 28/71/69
f 28/71/69 93/70/68 94/72/70
f 28/71/69 94/72/70 27/73/71
f 27/73/71 94/72/70 95/74/72
f 27/73/71 95/74/72 26/75/73
f 26/75/73 95/74/72 96/76/74
f 26/75/73 96/76/74 25/77/75
f 25/77/75 96/76/74 97/78/76
f 25/77/75 97/78/76 24/79/77
f 24/79/77 97/78/76 98/80/78
f 24/79/77 98/80/78 23/81/79
f 23/81/79 98/80/78 99/82/80
f 23/81/79 99/82/80 22/83/81
f 22/83/81 99/82/80 100/84/82
f 22/83/81 100/84/82 21/85/83
f 21/85/83 100/84/82 101/86/84
f 21/85/83 101/86/84 20/87/85
f 20/87/85 101/86/84 102/88/86
f 20/87/85 102/88/86 19/89/87
f 19/89/87 102/88/86 103/90/88
f 19/89/87 103/90/88 18/91/89
f 18/91/89 103/90/88 104/92/90
f 18/91/89 104/92/90 17/93/91
f 17/93/91 104/92/90 105/94/92
f 17/93/91 105/94/92 16/95/93
f 16/95/93 105/94/92 106/96/94
f 16/95/93 106/96/94 15/97/95
f 15/97/95 106/96/94 107/98/96
f 15/97/95 107/98/96 14/99/97
f 14/99/97 107/98/96 108/100/98
f 14/99/97 108/100/98 13/101/99
f 13/101/99 108/100/98 109/102/100
f 13/101/99 109/102/100 12/103/101
f 12/103/101 109/102/100 110/104/102
f 12/103/101 110/104/102 11/105/103
f 11/105/103 110/104/102 111/106/104
f 11/105/103 111/106/104 10/107/105
f 10/107/105 111/106/104 112/108/106
f 10/107/105 112/108/106 9/109/107
f 9/109/107 112/108/106 113/110/108
f 9/109/107 113/110/108 8/111/109
f 8/111/109 113/110/108 114/112/110
f 8/111/109 114/112/110 7/113/111
f 7/113/111 114/112/110 115/114/112
f 7/113/111 115/114/112 6/115/113
f 6/115/113 115/114/112 116/116/114
f 6/115/113 116/116/114 5/117/115
f 5/117/115 116/116/114 117/118/116
f 5/117/115 117/118/116 4/119/117
f 4/119/117 117/118/116 118/120/118
f 4/119/117 118/120/118 3/121/119
f 3/121/119 118/120/118 119/122/120
f 3/121/119 119/122/120 2/1/1
f 2/1/1 119/122/120 120/2/2
f 60/123/121 32/124/122 1/125/123
f 1/125/123 32/124/122 31/126/124
f 1/125/123 31/126/124 2/127/125
f 2/127/125 31/126/124 30/128/126
f 2/127/125 30/128/126 3/129/127
f 3/129/127 30/128/126 29/130/128
f 3/129/127 29/130/128 4/131/129
f 4/131/129 29/130/128 28/132/130
f 4/131/129 28/132/130 5/133/131
f 5/133/131 28/132/130 27/134/132
f 5/133/131 27/134/132 6/135/133
f 6/135/133 27/134/132 26/136/134
f 6/135/133 26/136/134 7/137/135
f 7/137/135 26/136/134 25/138/136
f 7/137/135 25/138/136 8/139/137
f 8/139/137 25/138/136 24/140/138
f 8/139/137 24/140/138 9/141/139
f 9/141/139 24/140/138 23/142/140
f 9/141/139 23/142/140 10/143/141
f 10/143/141 23/142/140 22/144/142
f 10/143/141 22/144/142 11/145/143
f 11/145/143 22/144/142 21/146/144
f 11/145/143 21/146/144 12/147/145
f 12/147/145 21/146/144 20/148/146
f 12/147/145 20/148/146 13/149/147
f 13/149/147 20/148/146 19/150/148
f 13/149/147 19/150/148 14/151/149
f 14/151/149 19/150/148 18/152/150
f 14/151/149 18/152/150 15/153/151
f 15/153/151 18/152/150 17/154/152
f 15/153/151 17/154/152 16/155/153
f 32/124/122 60/123/121 33/156/154
f 33/156/154 60/123/121 59/157/155
f 33/156/154 59/157/155 34/158/156
f 34/158/156 59/157/155 58/159/157
f 34/158/156 58/159/157 35/160/158
f 35/160/158 58/159/157 57/161/159
f 35/160/158 57/161/159 36/162/160
f 36/162/160 57/161/159 56/163/161
f 36/162/160 56/163/161 37/164/162
f 37/164/162 56/163/161 55/165/163
f 37/164/162 55/165/163 38/166/164
f 38/166/164 55/165/163 54/167/165
f 38/166/164 54/167/165 39/168/166
f 39/168/166 54/167/165 53/169/167
f 39/168/166 53/169/167 40/170/168
f 40/170/168 53/169/167 52/171/169
f 40/170/168 52/171/169 41/172/170
f 41/172/170 52/171/169 51/173/171
f 41/172/170 51/173/171 42/174/172
f 42/174/172 51/173/171 50/175/173
f 42/174/172 50/175/173 43/176/174
f 43/176/174 50/175/173 49/177/175
f 43/176/174 49/177/175 44/178/176
f 44/178/176 49/177/175 48/179/177
f 44/178/176 48/179/177 45/180/178
f 45/180/178 48/179/177 47/181/179
f 45/180/178 47/181/179 46/182/180
f 120/183/181 92/184/182 61/185/183
f 61/185/183 92/184/182 91/186/184
f 61/185/183 91/186/184 62/187/185
f 62/187/185 91/186/184 90/188/186
f 62/187/185 90/188/186 63/189/187
f 63/189/187 90/188/186 89/190/188
f 63/189/187 89/190/188 64/191/189
f 64/191/189 89/190/188 88/192/190
f 64/191/189 88/192/190 65/193/191
f 65/193/191 88/192/190 87/194/192
f 65/193/191 87/194/192 66/195/193
f 66/195/193 87/194/192 86/196/194
f 66/195/193 86/196/194 67/197/195
f 67/197/195 86/196/194 85/198/196
f 67/197/195 85/198/196 68/199/197
f 68/199/197 85/198/196 84/200/198
f 68/199/197 84/200/198 69/201/199
f 69/201/199 84/200/198 83/202/200
f 69/201/199 83/202/200 70/203/201
f 70/203/201 83/202/200 82/204/202
f 70/203/201 82/204/202 71/205/203
f 71/205/203 82/204/202 81/206/204
f 71/205/203 81/206/204 72/207/205
f 72/207/205 81/206/204 80/208/206
f 72/207/205 80/208/206 73/209/207
f 73/209/207 80/208/206 79/210/208
f 73/209/207 79/210/208 74/211/209
f 74/211/209 79/210/208 78/212/210
f 74/211/209 78/212/210 75/213/211
f 75/213/211 78/212/210 77/214/212
f 75/213/211 77/214/212 76/215/213
f 92/184/182 120/183/181 93/216/214
f 93/216/214 120/183/181 119/217/215
f 93/216/214 119/217/215 94/218/216
f 94/218/216 119/217/215 118/219/217
f 94/218/216 118/219/217 95/220/218
f 95/220/218 118/219/217 117/221/219
f 95/220/218 117/221/219 96/222/220
f 96/222/220 117/221/219 116/223/221
f 96/222/220 116/223/221 97/224/222
f 97/224/222 116/223/221 115/225/223
f 97/224/222 115/225/223 98/226/224
f 98/226/224 115/225/223 114/227/225
f 98/226/224 114/227/225 99/228/226
f 99/228/226 114/227/225 113/229/227
f 99/228/226 113/229/227 100/230/228
f 100/230/228 113/229/227 112/231/229
f 100/230/228 112/231/229 101/232/230
f 101/232/230 112/231/229 111/233/231
f 101/232/230 111/233/231 102/234/232
f 102/234/232 111/233/231 110/235/233
f 102/234/232 110/235/233 103/236/234
f 103/236/234 110/235/233 109/237/235
f 103/236/234 109/237/235 104/238/236
f 104/238/236 109/237/235 108/239/237
f 104/238/236 108/239/237 105/240/238
f 105/240/238 108/239/237 107/241/239
f 105/240/238 107/241/239 106/242/240
# 120 vertices
# 242 texture params
# 240 normals
# 236 facets

# 1 groups
